<svg xmlns="http://www.w3.org/2000/svg" xmlns:xlink="http://www.w3.org/1999/xlink" width="1080" zoomAndPan="magnify" viewBox="0 0 810 809.999993" height="1080" preserveAspectRatio="xMidYMid meet" version="1.0"><defs><g/><clipPath id="f579cdf082"><path d="M 440.683594 119.199219 L 552.003906 119.199219 L 552.003906 484.46875 L 440.683594 484.46875 Z M 440.683594 119.199219 " clip-rule="nonzero"/></clipPath><clipPath id="38f1a4aa70"><path d="M 552.003906 156.304688 L 552.003906 484.234375 L 440.683594 447.125 L 440.683594 119.199219 Z M 552.003906 156.304688 " clip-rule="nonzero"/></clipPath><clipPath id="375a89f354"><path d="M 347.613281 119.179688 L 440.6875 119.179688 L 440.6875 223.890625 L 347.613281 223.890625 Z M 347.613281 119.179688 " clip-rule="nonzero"/></clipPath><clipPath id="381539d461"><path d="M 347.613281 150.214844 L 347.613281 223.890625 L 440.6875 192.863281 L 440.6875 119.191406 Z M 347.613281 150.214844 " clip-rule="nonzero"/></clipPath><clipPath id="af0134c395"><path d="M 305.609375 209.261719 L 385.480469 209.261719 L 385.480469 428.273438 L 305.609375 428.273438 Z M 305.609375 209.261719 " clip-rule="nonzero"/></clipPath><clipPath id="c3150409f7"><path d="M 385.480469 235.882812 L 385.480469 428.132812 L 305.609375 401.511719 L 305.609375 209.261719 Z M 385.480469 235.882812 " clip-rule="nonzero"/></clipPath><clipPath id="eaaab88605"><path d="M 242.695312 209.082031 L 305.617188 209.082031 L 305.617188 362.449219 L 242.695312 362.449219 Z M 242.695312 209.082031 " clip-rule="nonzero"/></clipPath><clipPath id="373b464209"><path d="M 242.695312 230.234375 L 242.695312 362.449219 L 305.617188 341.476562 L 305.617188 209.257812 Z M 242.695312 230.234375 " clip-rule="nonzero"/></clipPath></defs><rect x="-81" width="972" fill="#ffffff" y="-80.999999" height="971.999992" fill-opacity="1"/><rect x="-81" width="972" fill="#400635" y="-80.999999" height="971.999992" fill-opacity="1"/><g clip-path="url(#f579cdf082)"><g clip-path="url(#38f1a4aa70)"><path fill="#ffffff" d="M 552.003906 119.199219 L 552.003906 484.035156 L 440.683594 484.035156 L 440.683594 119.199219 Z M 552.003906 119.199219 " fill-opacity="1" fill-rule="nonzero"/></g></g><g clip-path="url(#375a89f354)"><g clip-path="url(#381539d461)"><path fill="#c0c0c0" d="M 347.613281 223.890625 L 347.613281 119.179688 L 440.6875 119.179688 L 440.6875 223.890625 Z M 347.613281 223.890625 " fill-opacity="1" fill-rule="nonzero"/></g></g><g clip-path="url(#af0134c395)"><g clip-path="url(#c3150409f7)"><path fill="#ffffff" d="M 385.480469 209.261719 L 385.480469 428.273438 L 305.609375 428.273438 L 305.609375 209.261719 Z M 385.480469 209.261719 " fill-opacity="1" fill-rule="nonzero"/></g></g><g clip-path="url(#eaaab88605)"><g clip-path="url(#373b464209)"><path fill="#c0c0c0" d="M 242.695312 362.449219 L 242.695312 209.328125 L 305.617188 209.328125 L 305.617188 362.449219 Z M 242.695312 362.449219 " fill-opacity="1" fill-rule="nonzero"/></g></g><g fill="#ffffff" fill-opacity="1"><g transform="translate(200.958728, 599.646568)"><g><path d="M 53.75 -18.171875 L 15.84375 -18.171875 L 7.671875 0 L 0.1875 0 L 31.296875 -68.046875 L 38.390625 -68.046875 L 69.5 0 L 61.921875 0 Z M 51.125 -24.015625 L 34.796875 -60.5625 L 18.46875 -24.015625 Z M 51.125 -24.015625 "/></g></g></g><g fill="#ffffff" fill-opacity="1"><g transform="translate(282.698455, 599.646568)"><g><path d="M 36.546875 -68.046875 C 45.234375 -68.046875 52.035156 -65.96875 56.953125 -61.8125 C 61.878906 -57.664062 64.34375 -51.96875 64.34375 -44.71875 C 64.34375 -37.457031 61.878906 -31.769531 56.953125 -27.65625 C 52.035156 -23.539062 45.234375 -21.484375 36.546875 -21.484375 L 18.28125 -21.484375 L 18.28125 0 L 11.078125 0 L 11.078125 -68.046875 Z M 36.359375 -27.796875 C 43.097656 -27.796875 48.25 -29.269531 51.8125 -32.21875 C 55.375 -35.164062 57.15625 -39.332031 57.15625 -44.71875 C 57.15625 -50.21875 55.375 -54.441406 51.8125 -57.390625 C 48.25 -60.347656 43.097656 -61.828125 36.359375 -61.828125 L 18.28125 -61.828125 L 18.28125 -27.796875 Z M 36.359375 -27.796875 "/></g></g></g><g fill="#ffffff" fill-opacity="1"><g transform="translate(364.535395, 599.646568)"><g><path d="M 40.828125 0.578125 C 34.085938 0.578125 27.976562 -0.925781 22.5 -3.9375 C 17.019531 -6.945312 12.738281 -11.078125 9.65625 -16.328125 C 6.582031 -21.578125 5.046875 -27.472656 5.046875 -34.015625 C 5.046875 -40.566406 6.582031 -46.460938 9.65625 -51.703125 C 12.738281 -56.953125 17.019531 -61.082031 22.5 -64.09375 C 27.976562 -67.113281 34.085938 -68.625 40.828125 -68.625 C 47.566406 -68.625 53.640625 -67.132812 59.046875 -64.15625 C 64.460938 -61.175781 68.722656 -57.046875 71.828125 -51.765625 C 74.941406 -46.484375 76.5 -40.566406 76.5 -34.015625 C 76.5 -27.472656 74.941406 -21.5625 71.828125 -16.28125 C 68.722656 -11 64.460938 -6.867188 59.046875 -3.890625 C 53.640625 -0.910156 47.566406 0.578125 40.828125 0.578125 Z M 40.828125 -5.828125 C 46.203125 -5.828125 51.0625 -7.039062 55.40625 -9.46875 C 59.75 -11.90625 63.148438 -15.273438 65.609375 -19.578125 C 68.078125 -23.890625 69.3125 -28.703125 69.3125 -34.015625 C 69.3125 -39.328125 68.078125 -44.140625 65.609375 -48.453125 C 63.148438 -52.765625 59.75 -56.132812 55.40625 -58.5625 C 51.0625 -60.988281 46.203125 -62.203125 40.828125 -62.203125 C 35.441406 -62.203125 30.5625 -60.988281 26.1875 -58.5625 C 21.820312 -56.132812 18.390625 -52.765625 15.890625 -48.453125 C 13.398438 -44.140625 12.15625 -39.328125 12.15625 -34.015625 C 12.15625 -28.703125 13.398438 -23.890625 15.890625 -19.578125 C 18.390625 -15.273438 21.820312 -11.90625 26.1875 -9.46875 C 30.5625 -7.039062 35.441406 -5.828125 40.828125 -5.828125 Z M 40.828125 -5.828125 "/></g></g></g><g fill="#ffffff" fill-opacity="1"><g transform="translate(458.132332, 599.646568)"><g><path d="M 11.078125 -68.046875 L 18.28125 -68.046875 L 18.28125 -6.21875 L 56.375 -6.21875 L 56.375 0 L 11.078125 0 Z M 11.078125 -68.046875 "/></g></g></g><g fill="#ffffff" fill-opacity="1"><g transform="translate(527.431726, 599.646568)"><g><path d="M 40.828125 0.578125 C 34.085938 0.578125 27.976562 -0.925781 22.5 -3.9375 C 17.019531 -6.945312 12.738281 -11.078125 9.65625 -16.328125 C 6.582031 -21.578125 5.046875 -27.472656 5.046875 -34.015625 C 5.046875 -40.566406 6.582031 -46.460938 9.65625 -51.703125 C 12.738281 -56.953125 17.019531 -61.082031 22.5 -64.09375 C 27.976562 -67.113281 34.085938 -68.625 40.828125 -68.625 C 47.566406 -68.625 53.640625 -67.132812 59.046875 -64.15625 C 64.460938 -61.175781 68.722656 -57.046875 71.828125 -51.765625 C 74.941406 -46.484375 76.5 -40.566406 76.5 -34.015625 C 76.5 -27.472656 74.941406 -21.5625 71.828125 -16.28125 C 68.722656 -11 64.460938 -6.867188 59.046875 -3.890625 C 53.640625 -0.910156 47.566406 0.578125 40.828125 0.578125 Z M 40.828125 -5.828125 C 46.203125 -5.828125 51.0625 -7.039062 55.40625 -9.46875 C 59.75 -11.90625 63.148438 -15.273438 65.609375 -19.578125 C 68.078125 -23.890625 69.3125 -28.703125 69.3125 -34.015625 C 69.3125 -39.328125 68.078125 -44.140625 65.609375 -48.453125 C 63.148438 -52.765625 59.75 -56.132812 55.40625 -58.5625 C 51.0625 -60.988281 46.203125 -62.203125 40.828125 -62.203125 C 35.441406 -62.203125 30.5625 -60.988281 26.1875 -58.5625 C 21.820312 -56.132812 18.390625 -52.765625 15.890625 -48.453125 C 13.398438 -44.140625 12.15625 -39.328125 12.15625 -34.015625 C 12.15625 -28.703125 13.398438 -23.890625 15.890625 -19.578125 C 18.390625 -15.273438 21.820312 -11.90625 26.1875 -9.46875 C 30.5625 -7.039062 35.441406 -5.828125 40.828125 -5.828125 Z M 40.828125 -5.828125 "/></g></g></g><g fill="#ffffff" fill-opacity="1"><g transform="translate(256.896733, 681.286766)"><g><path d="M 2.703125 -24.515625 L 5.390625 -24.515625 L 20.140625 -4.625 L 20.140625 -24.515625 L 22.703125 -24.515625 L 22.703125 0 L 20.3125 0 L 5.25 -20.421875 L 5.25 0 L 2.703125 0 Z M 2.703125 -24.515625 "/></g></g></g><g fill="#ffffff" fill-opacity="1"><g transform="translate(291.326974, 681.286766)"><g><path d="M 2.703125 0 L 2.703125 -24.515625 L 20.25 -24.515625 L 20.25 -22.140625 L 5.390625 -22.140625 L 5.390625 -13.5625 L 15.09375 -13.5625 L 15.09375 -11.203125 L 5.390625 -11.203125 L 5.390625 -2.375 L 20.390625 -2.375 L 20.390625 0 Z M 2.703125 0 "/></g></g></g><g fill="#ffffff" fill-opacity="1"><g transform="translate(321.939804, 681.286766)"><g><path d="M 2.703125 0 L 2.703125 -24.515625 L 5.390625 -24.515625 L 5.390625 -12.890625 L 18.078125 -24.515625 L 21.609375 -24.515625 L 8.296875 -12.5 L 21.890625 0 L 18.109375 0 L 5.390625 -11.765625 L 5.390625 0 Z M 2.703125 0 "/></g></g></g><g fill="#ffffff" fill-opacity="1"><g transform="translate(352.587658, 681.286766)"><g><path d="M 2.703125 0 L 2.703125 -24.515625 L 13.203125 -24.515625 C 15.585938 -24.515625 17.515625 -23.867188 18.984375 -22.578125 C 20.453125 -21.285156 21.1875 -19.585938 21.1875 -17.484375 C 21.1875 -15.867188 20.710938 -14.476562 19.765625 -13.3125 C 18.828125 -12.144531 17.5625 -11.335938 15.96875 -10.890625 L 21.46875 0 L 18.5 0 L 13.234375 -10.546875 L 5.390625 -10.546875 L 5.390625 0 Z M 13.03125 -22.109375 L 5.390625 -22.109375 L 5.390625 -12.828125 L 13.03125 -12.828125 C 14.664062 -12.828125 15.984375 -13.25 16.984375 -14.09375 C 17.992188 -14.945312 18.5 -16.078125 18.5 -17.484375 C 18.5 -18.878906 17.992188 -20 16.984375 -20.84375 C 15.984375 -21.6875 14.664062 -22.109375 13.03125 -22.109375 Z M 13.03125 -22.109375 "/></g></g></g><g fill="#ffffff" fill-opacity="1"><g transform="translate(384.216141, 681.286766)"><g><path d="M 2.703125 0 L 2.703125 -24.515625 L 20.25 -24.515625 L 20.25 -22.140625 L 5.390625 -22.140625 L 5.390625 -13.5625 L 15.09375 -13.5625 L 15.09375 -11.203125 L 5.390625 -11.203125 L 5.390625 -2.375 L 20.390625 -2.375 L 20.390625 0 Z M 2.703125 0 "/></g></g></g><g fill="#ffffff" fill-opacity="1"><g transform="translate(414.828971, 681.286766)"><g><path d="M 0.59375 -22.109375 L 0.59375 -24.515625 L 21.015625 -24.515625 L 21.015625 -22.109375 L 12.15625 -22.109375 L 12.15625 0 L 9.453125 0 L 9.453125 -22.109375 Z M 0.59375 -22.109375 "/></g></g></g><g fill="#ffffff" fill-opacity="1"><g transform="translate(445.476825, 681.286766)"><g><path d="M 2.703125 -24.515625 L 5.390625 -24.515625 L 20.140625 -4.625 L 20.140625 -24.515625 L 22.703125 -24.515625 L 22.703125 0 L 20.3125 0 L 5.25 -20.421875 L 5.25 0 L 2.703125 0 Z M 2.703125 -24.515625 "/></g></g></g><g fill="#ffffff" fill-opacity="1"><g transform="translate(479.907066, 681.286766)"><g><path d="M 2.703125 0 L 2.703125 -24.515625 L 5.390625 -24.515625 L 5.390625 0 Z M 2.703125 0 "/></g></g></g><g fill="#ffffff" fill-opacity="1"><g transform="translate(497.036329, 681.286766)"><g><path d="M 2.703125 -24.515625 L 5.390625 -24.515625 L 20.140625 -4.625 L 20.140625 -24.515625 L 22.703125 -24.515625 L 22.703125 0 L 20.3125 0 L 5.25 -20.421875 L 5.25 0 L 2.703125 0 Z M 2.703125 -24.515625 "/></g></g></g><g fill="#ffffff" fill-opacity="1"><g transform="translate(531.46657, 681.286766)"><g><path d="M 2.703125 0 L 2.703125 -24.515625 L 20.25 -24.515625 L 20.25 -22.140625 L 5.390625 -22.140625 L 5.390625 -13.5625 L 15.09375 -13.5625 L 15.09375 -11.203125 L 5.390625 -11.203125 L 5.390625 -2.375 L 20.390625 -2.375 L 20.390625 0 Z M 2.703125 0 "/></g></g></g></svg>