<svg xmlns="http://www.w3.org/2000/svg" xmlns:xlink="http://www.w3.org/1999/xlink" width="1080" zoomAndPan="magnify" viewBox="0 0 810 809.999993" height="1080" preserveAspectRatio="xMidYMid meet" version="1.0"><defs><g/><clipPath id="d3089a0e29"><path d="M 440.683594 119.199219 L 552.003906 119.199219 L 552.003906 484.46875 L 440.683594 484.46875 Z M 440.683594 119.199219 " clip-rule="nonzero"/></clipPath><clipPath id="859719b147"><path d="M 552.003906 156.304688 L 552.003906 484.234375 L 440.683594 447.125 L 440.683594 119.199219 Z M 552.003906 156.304688 " clip-rule="nonzero"/></clipPath><clipPath id="7f480bd7ae"><path d="M 347.613281 119.179688 L 440.6875 119.179688 L 440.6875 223.890625 L 347.613281 223.890625 Z M 347.613281 119.179688 " clip-rule="nonzero"/></clipPath><clipPath id="01d504a898"><path d="M 347.613281 150.214844 L 347.613281 223.890625 L 440.6875 192.863281 L 440.6875 119.191406 Z M 347.613281 150.214844 " clip-rule="nonzero"/></clipPath><clipPath id="ecca1d20fc"><path d="M 305.609375 209.261719 L 385.480469 209.261719 L 385.480469 428.273438 L 305.609375 428.273438 Z M 305.609375 209.261719 " clip-rule="nonzero"/></clipPath><clipPath id="b7e5f28c85"><path d="M 385.480469 235.882812 L 385.480469 428.132812 L 305.609375 401.511719 L 305.609375 209.261719 Z M 385.480469 235.882812 " clip-rule="nonzero"/></clipPath><clipPath id="24455c89ad"><path d="M 242.695312 209.082031 L 305.617188 209.082031 L 305.617188 362.449219 L 242.695312 362.449219 Z M 242.695312 209.082031 " clip-rule="nonzero"/></clipPath><clipPath id="39f68659a0"><path d="M 242.695312 230.234375 L 242.695312 362.449219 L 305.617188 341.476562 L 305.617188 209.257812 Z M 242.695312 230.234375 " clip-rule="nonzero"/></clipPath></defs><rect x="-81" width="972" fill="#ffffff" y="-80.999999" height="971.999992" fill-opacity="1"/><rect x="-81" width="972" fill="#400635" y="-80.999999" height="971.999992" fill-opacity="1"/><g clip-path="url(#d3089a0e29)"><g clip-path="url(#859719b147)"><path fill="#ffffff" d="M 552.003906 119.199219 L 552.003906 484.035156 L 440.683594 484.035156 L 440.683594 119.199219 Z M 552.003906 119.199219 " fill-opacity="1" fill-rule="nonzero"/></g></g><g clip-path="url(#7f480bd7ae)"><g clip-path="url(#01d504a898)"><path fill="#c0c0c0" d="M 347.613281 223.890625 L 347.613281 119.179688 L 440.6875 119.179688 L 440.6875 223.890625 Z M 347.613281 223.890625 " fill-opacity="1" fill-rule="nonzero"/></g></g><g clip-path="url(#ecca1d20fc)"><g clip-path="url(#b7e5f28c85)"><path fill="#ffffff" d="M 385.480469 209.261719 L 385.480469 428.273438 L 305.609375 428.273438 L 305.609375 209.261719 Z M 385.480469 209.261719 " fill-opacity="1" fill-rule="nonzero"/></g></g><g clip-path="url(#24455c89ad)"><g clip-path="url(#39f68659a0)"><path fill="#c0c0c0" d="M 242.695312 362.449219 L 242.695312 209.328125 L 305.617188 209.328125 L 305.617188 362.449219 Z M 242.695312 362.449219 " fill-opacity="1" fill-rule="nonzero"/></g></g><g fill="#ffffff" fill-opacity="1"><g transform="translate(189.082844, 598.195483)"><g><path d="M 56.875 -19.234375 L 16.765625 -19.234375 L 8.125 0 L 0.203125 0 L 33.125 -72 L 40.625 -72 L 73.546875 0 L 65.515625 0 Z M 54.109375 -25.40625 L 36.828125 -64.078125 L 19.546875 -25.40625 Z M 54.109375 -25.40625 "/></g></g></g><g fill="#ffffff" fill-opacity="1"><g transform="translate(275.580079, 598.195483)"><g><path d="M 38.671875 -72 C 47.859375 -72 55.054688 -69.800781 60.265625 -65.40625 C 65.484375 -61.019531 68.09375 -54.988281 68.09375 -47.3125 C 68.09375 -39.632812 65.484375 -33.617188 60.265625 -29.265625 C 55.054688 -24.910156 47.859375 -22.734375 38.671875 -22.734375 L 19.34375 -22.734375 L 19.34375 0 L 11.71875 0 L 11.71875 -72 Z M 38.46875 -29.421875 C 45.601562 -29.421875 51.054688 -30.976562 54.828125 -34.09375 C 58.597656 -37.21875 60.484375 -41.625 60.484375 -47.3125 C 60.484375 -53.144531 58.597656 -57.617188 54.828125 -60.734375 C 51.054688 -63.859375 45.601562 -65.421875 38.46875 -65.421875 L 19.34375 -65.421875 L 19.34375 -29.421875 Z M 38.46875 -29.421875 "/></g></g></g><g fill="#ffffff" fill-opacity="1"><g transform="translate(362.180184, 598.195483)"><g><path d="M 43.203125 0.609375 C 36.066406 0.609375 29.601562 -0.984375 23.8125 -4.171875 C 18.019531 -7.359375 13.492188 -11.726562 10.234375 -17.28125 C 6.972656 -22.832031 5.34375 -29.070312 5.34375 -36 C 5.34375 -42.925781 6.972656 -49.164062 10.234375 -54.71875 C 13.492188 -60.269531 18.019531 -64.640625 23.8125 -67.828125 C 29.601562 -71.023438 36.066406 -72.625 43.203125 -72.625 C 50.328125 -72.625 56.753906 -71.046875 62.484375 -67.890625 C 68.210938 -64.734375 72.722656 -60.359375 76.015625 -54.765625 C 79.304688 -49.179688 80.953125 -42.925781 80.953125 -36 C 80.953125 -29.070312 79.304688 -22.8125 76.015625 -17.21875 C 72.722656 -11.632812 68.210938 -7.265625 62.484375 -4.109375 C 56.753906 -0.960938 50.328125 0.609375 43.203125 0.609375 Z M 43.203125 -6.171875 C 48.890625 -6.171875 54.03125 -7.457031 58.625 -10.03125 C 63.21875 -12.601562 66.816406 -16.164062 69.421875 -20.71875 C 72.035156 -25.28125 73.34375 -30.375 73.34375 -36 C 73.34375 -41.625 72.035156 -46.710938 69.421875 -51.265625 C 66.816406 -55.828125 63.21875 -59.394531 58.625 -61.96875 C 54.03125 -64.539062 48.890625 -65.828125 43.203125 -65.828125 C 37.503906 -65.828125 32.34375 -64.539062 27.71875 -61.96875 C 23.09375 -59.394531 19.457031 -55.828125 16.8125 -51.265625 C 14.175781 -46.710938 12.859375 -41.625 12.859375 -36 C 12.859375 -30.375 14.175781 -25.28125 16.8125 -20.71875 C 19.457031 -16.164062 23.09375 -12.601562 27.71875 -10.03125 C 32.34375 -7.457031 37.503906 -6.171875 43.203125 -6.171875 Z M 43.203125 -6.171875 "/></g></g></g><g fill="#ffffff" fill-opacity="1"><g transform="translate(461.224753, 598.195483)"><g><path d="M 11.71875 -72 L 19.34375 -72 L 19.34375 -6.578125 L 59.65625 -6.578125 L 59.65625 0 L 11.71875 0 Z M 11.71875 -72 "/></g></g></g><g fill="#ffffff" fill-opacity="1"><g transform="translate(534.557588, 598.195483)"><g><path d="M 43.203125 0.609375 C 36.066406 0.609375 29.601562 -0.984375 23.8125 -4.171875 C 18.019531 -7.359375 13.492188 -11.726562 10.234375 -17.28125 C 6.972656 -22.832031 5.34375 -29.070312 5.34375 -36 C 5.34375 -42.925781 6.972656 -49.164062 10.234375 -54.71875 C 13.492188 -60.269531 18.019531 -64.640625 23.8125 -67.828125 C 29.601562 -71.023438 36.066406 -72.625 43.203125 -72.625 C 50.328125 -72.625 56.753906 -71.046875 62.484375 -67.890625 C 68.210938 -64.734375 72.722656 -60.359375 76.015625 -54.765625 C 79.304688 -49.179688 80.953125 -42.925781 80.953125 -36 C 80.953125 -29.070312 79.304688 -22.8125 76.015625 -17.21875 C 72.722656 -11.632812 68.210938 -7.265625 62.484375 -4.109375 C 56.753906 -0.960938 50.328125 0.609375 43.203125 0.609375 Z M 43.203125 -6.171875 C 48.890625 -6.171875 54.03125 -7.457031 58.625 -10.03125 C 63.21875 -12.601562 66.816406 -16.164062 69.421875 -20.71875 C 72.035156 -25.28125 73.34375 -30.375 73.34375 -36 C 73.34375 -41.625 72.035156 -46.710938 69.421875 -51.265625 C 66.816406 -55.828125 63.21875 -59.394531 58.625 -61.96875 C 54.03125 -64.539062 48.890625 -65.828125 43.203125 -65.828125 C 37.503906 -65.828125 32.34375 -64.539062 27.71875 -61.96875 C 23.09375 -59.394531 19.457031 -55.828125 16.8125 -51.265625 C 14.175781 -46.710938 12.859375 -41.625 12.859375 -36 C 12.859375 -30.375 14.175781 -25.28125 16.8125 -20.71875 C 19.457031 -16.164062 23.09375 -12.601562 27.71875 -10.03125 C 32.34375 -7.457031 37.503906 -6.171875 43.203125 -6.171875 Z M 43.203125 -6.171875 "/></g></g></g><g fill="#ffffff" fill-opacity="1"><g transform="translate(240.405915, 679.912906)"><g><path d="M 3 -27.25 L 6 -27.25 L 22.390625 -5.140625 L 22.390625 -27.25 L 25.234375 -27.25 L 25.234375 0 L 22.578125 0 L 5.84375 -22.703125 L 5.84375 0 L 3 0 Z M 3 -27.25 "/></g></g></g><g fill="#ffffff" fill-opacity="1"><g transform="translate(278.67724, 679.912906)"><g><path d="M 3 0 L 3 -27.25 L 22.5 -27.25 L 22.5 -24.609375 L 6 -24.609375 L 6 -15.0625 L 16.78125 -15.0625 L 16.78125 -12.453125 L 6 -12.453125 L 6 -2.640625 L 22.65625 -2.640625 L 22.65625 0 Z M 3 0 "/></g></g></g><g fill="#ffffff" fill-opacity="1"><g transform="translate(312.705221, 679.912906)"><g><path d="M 3 0 L 3 -27.25 L 6 -27.25 L 6 -14.328125 L 20.09375 -27.25 L 24.03125 -27.25 L 9.234375 -13.90625 L 24.34375 0 L 20.125 0 L 6 -13.078125 L 6 0 Z M 3 0 "/></g></g></g><g fill="#ffffff" fill-opacity="1"><g transform="translate(346.772129, 679.912906)"><g><path d="M 3 0 L 3 -27.25 L 14.671875 -27.25 C 17.328125 -27.25 19.472656 -26.53125 21.109375 -25.09375 C 22.742188 -23.65625 23.5625 -21.769531 23.5625 -19.4375 C 23.5625 -17.644531 23.035156 -16.097656 21.984375 -14.796875 C 20.929688 -13.492188 19.519531 -12.597656 17.75 -12.109375 L 23.875 0 L 20.5625 0 L 14.71875 -11.71875 L 6 -11.71875 L 6 0 Z M 14.484375 -24.5625 L 6 -24.5625 L 6 -14.25 L 14.484375 -14.25 C 16.296875 -14.25 17.757812 -14.722656 18.875 -15.671875 C 20 -16.617188 20.5625 -17.875 20.5625 -19.4375 C 20.5625 -20.988281 20 -22.226562 18.875 -23.15625 C 17.757812 -24.09375 16.296875 -24.5625 14.484375 -24.5625 Z M 14.484375 -24.5625 "/></g></g></g><g fill="#ffffff" fill-opacity="1"><g transform="translate(381.929086, 679.912906)"><g><path d="M 3 0 L 3 -27.25 L 22.5 -27.25 L 22.5 -24.609375 L 6 -24.609375 L 6 -15.0625 L 16.78125 -15.0625 L 16.78125 -12.453125 L 6 -12.453125 L 6 -2.640625 L 22.65625 -2.640625 L 22.65625 0 Z M 3 0 "/></g></g></g><g fill="#ffffff" fill-opacity="1"><g transform="translate(415.957062, 679.912906)"><g><path d="M 0.65625 -24.5625 L 0.65625 -27.25 L 23.359375 -27.25 L 23.359375 -24.5625 L 13.515625 -24.5625 L 13.515625 0 L 10.515625 0 L 10.515625 -24.5625 Z M 0.65625 -24.5625 "/></g></g></g><g fill="#ffffff" fill-opacity="1"><g transform="translate(450.023969, 679.912906)"><g><path d="M 3 -27.25 L 6 -27.25 L 22.390625 -5.140625 L 22.390625 -27.25 L 25.234375 -27.25 L 25.234375 0 L 22.578125 0 L 5.84375 -22.703125 L 5.84375 0 L 3 0 Z M 3 -27.25 "/></g></g></g><g fill="#ffffff" fill-opacity="1"><g transform="translate(488.295299, 679.912906)"><g><path d="M 3 0 L 3 -27.25 L 6 -27.25 L 6 0 Z M 3 0 "/></g></g></g><g fill="#ffffff" fill-opacity="1"><g transform="translate(507.335337, 679.912906)"><g><path d="M 3 -27.25 L 6 -27.25 L 22.390625 -5.140625 L 22.390625 -27.25 L 25.234375 -27.25 L 25.234375 0 L 22.578125 0 L 5.84375 -22.703125 L 5.84375 0 L 3 0 Z M 3 -27.25 "/></g></g></g><g fill="#ffffff" fill-opacity="1"><g transform="translate(545.606667, 679.912906)"><g><path d="M 3 0 L 3 -27.25 L 22.5 -27.25 L 22.5 -24.609375 L 6 -24.609375 L 6 -15.0625 L 16.78125 -15.0625 L 16.78125 -12.453125 L 6 -12.453125 L 6 -2.640625 L 22.65625 -2.640625 L 22.65625 0 Z M 3 0 "/></g></g></g></svg>