<svg xmlns="http://www.w3.org/2000/svg" xmlns:xlink="http://www.w3.org/1999/xlink" width="1080" zoomAndPan="magnify" viewBox="0 0 810 809.999993" height="1080" preserveAspectRatio="xMidYMid meet" version="1.0"><defs><clipPath id="0d90f11bd6"><path d="M 478.132812 96.976562 L 666 96.976562 L 666 713 L 478.132812 713 Z M 478.132812 96.976562 " clip-rule="nonzero"/></clipPath><clipPath id="90539e4577"><path d="M 666 159.597656 L 666 713.019531 L 478.132812 650.398438 L 478.132812 96.976562 Z M 666 159.597656 " clip-rule="nonzero"/></clipPath><clipPath id="2028d0e87d"><path d="M 321.054688 96.957031 L 478.136719 96.957031 L 478.136719 273.671875 L 321.054688 273.671875 Z M 321.054688 96.957031 " clip-rule="nonzero"/></clipPath><clipPath id="2e3909699e"><path d="M 321.054688 149.335938 L 321.054688 273.671875 L 478.136719 221.3125 L 478.136719 96.976562 Z M 321.054688 149.335938 " clip-rule="nonzero"/></clipPath><clipPath id="546b527b17"><path d="M 250.175781 248.972656 L 384.960938 248.972656 L 384.960938 618.585938 L 250.175781 618.585938 Z M 250.175781 248.972656 " clip-rule="nonzero"/></clipPath><clipPath id="85b792cdea"><path d="M 384.960938 293.902344 L 384.960938 618.351562 L 250.175781 573.421875 L 250.175781 248.972656 Z M 384.960938 293.902344 " clip-rule="nonzero"/></clipPath><clipPath id="1401a6fc18"><path d="M 143.992188 249 L 250.175781 249 L 250.175781 507.496094 L 143.992188 507.496094 Z M 143.992188 249 " clip-rule="nonzero"/></clipPath><clipPath id="f395c4f3e2"><path d="M 143.992188 284.363281 L 143.992188 507.496094 L 250.175781 472.097656 L 250.175781 248.96875 Z M 143.992188 284.363281 " clip-rule="nonzero"/></clipPath></defs><rect x="-81" width="972" fill="#ffffff" y="-80.999999" height="971.999992" fill-opacity="1"/><rect x="-81" width="972" fill="#400635" y="-80.999999" height="971.999992" fill-opacity="1"/><g clip-path="url(#0d90f11bd6)"><g clip-path="url(#90539e4577)"><path fill="#ffffff" d="M 666 96.976562 L 666 712.6875 L 478.132812 712.6875 L 478.132812 96.976562 Z M 666 96.976562 " fill-opacity="1" fill-rule="nonzero"/></g></g><g clip-path="url(#2028d0e87d)"><g clip-path="url(#2e3909699e)"><path fill="#c0c0c0" d="M 321.054688 273.671875 L 321.054688 96.957031 L 478.136719 96.957031 L 478.136719 273.671875 Z M 321.054688 273.671875 " fill-opacity="1" fill-rule="nonzero"/></g></g><g clip-path="url(#546b527b17)"><g clip-path="url(#85b792cdea)"><path fill="#ffffff" d="M 384.960938 248.972656 L 384.960938 618.585938 L 250.175781 618.585938 L 250.175781 248.972656 Z M 384.960938 248.972656 " fill-opacity="1" fill-rule="nonzero"/></g></g><g clip-path="url(#1401a6fc18)"><g clip-path="url(#f395c4f3e2)"><path fill="#c0c0c0" d="M 143.992188 507.496094 L 143.992188 249.082031 L 250.175781 249.082031 L 250.175781 507.496094 Z M 143.992188 507.496094 " fill-opacity="1" fill-rule="nonzero"/></g></g></svg>