<svg xmlns="http://www.w3.org/2000/svg" xmlns:xlink="http://www.w3.org/1999/xlink" width="7200" zoomAndPan="magnify" viewBox="0 0 5400 2232.000012" height="2976" preserveAspectRatio="xMidYMid meet" version="1.0"><defs><g/><clipPath id="ab570e0d77"><path d="M 1.210938 0 L 5398.789062 0 L 5398.789062 2231 L 1.210938 2231 Z M 1.210938 0 " clip-rule="nonzero"/></clipPath><clipPath id="abf2825140"><path d="M 1298.683594 137.441406 L 1866.640625 137.441406 L 1866.640625 2094 L 1298.683594 2094 Z M 1298.683594 137.441406 " clip-rule="nonzero"/></clipPath><clipPath id="45abf260fa"><path d="M 1866.640625 348.992188 L 1866.640625 2093.554688 L 1298.683594 1882.007812 L 1298.683594 137.441406 Z M 1866.640625 348.992188 " clip-rule="nonzero"/></clipPath><clipPath id="af96cfac27"><path d="M 823.804688 138 L 1298.6875 138 L 1298.6875 698.496094 L 823.804688 698.496094 Z M 823.804688 138 " clip-rule="nonzero"/></clipPath><clipPath id="4af91b6073"><path d="M 823.804688 314.320312 L 823.804688 698.496094 L 1298.6875 521.617188 L 1298.6875 137.4375 Z M 823.804688 314.320312 " clip-rule="nonzero"/></clipPath><clipPath id="321373e702"><path d="M 550.503906 593.472656 L 957.992188 593.472656 L 957.992188 1766.597656 L 550.503906 1766.597656 Z M 550.503906 593.472656 " clip-rule="nonzero"/></clipPath><clipPath id="1f0528038f"><path d="M 957.992188 745.25 L 957.992188 1766.351562 L 550.503906 1614.574219 L 550.503906 593.472656 Z M 957.992188 745.25 " clip-rule="nonzero"/></clipPath><clipPath id="281eeeeb47"><path d="M 224.304688 593 L 550.503906 593 L 550.503906 1414.355469 L 224.304688 1414.355469 Z M 224.304688 593 " clip-rule="nonzero"/></clipPath><clipPath id="8e1ac75e77"><path d="M 224.304688 713.035156 L 224.304688 1414.355469 L 550.503906 1294.785156 L 550.503906 593.464844 Z M 224.304688 713.035156 " clip-rule="nonzero"/></clipPath></defs><g clip-path="url(#ab570e0d77)"><path fill="#ffffff" d="M 1.210938 0 L 5398.789062 0 L 5398.789062 2231 L 1.210938 2231 Z M 1.210938 0 " fill-opacity="1" fill-rule="nonzero"/><path fill="#400635" d="M 1.210938 0 L 5398.789062 0 L 5398.789062 2231 L 1.210938 2231 Z M 1.210938 0 " fill-opacity="1" fill-rule="nonzero"/></g><g clip-path="url(#abf2825140)"><g clip-path="url(#45abf260fa)"><path fill="#ffffff" d="M 1866.640625 137.441406 L 1866.640625 2094.242188 L 1298.683594 2094.242188 L 1298.683594 137.441406 Z M 1866.640625 137.441406 " fill-opacity="1" fill-rule="nonzero"/></g></g><g clip-path="url(#af96cfac27)"><g clip-path="url(#4af91b6073)"><path fill="#c0c0c0" d="M 823.804688 698.496094 L 823.804688 138.285156 L 1298.6875 138.285156 L 1298.6875 698.496094 Z M 823.804688 698.496094 " fill-opacity="1" fill-rule="nonzero"/></g></g><g clip-path="url(#321373e702)"><g clip-path="url(#1f0528038f)"><path fill="#ffffff" d="M 957.992188 593.472656 L 957.992188 1766.597656 L 550.503906 1766.597656 L 550.503906 593.472656 Z M 957.992188 593.472656 " fill-opacity="1" fill-rule="nonzero"/></g></g><g clip-path="url(#281eeeeb47)"><g clip-path="url(#8e1ac75e77)"><path fill="#c0c0c0" d="M 224.304688 1414.355469 L 224.304688 593.761719 L 550.503906 593.761719 L 550.503906 1414.355469 Z M 224.304688 1414.355469 " fill-opacity="1" fill-rule="nonzero"/></g></g><g fill="#ffffff" fill-opacity="1"><g transform="translate(2063.00264, 1211.082322)"><g><path d="M 415.703125 -140.578125 L 122.53125 -140.578125 L 59.390625 0 L 1.5 0 L 242.0625 -526.21875 L 296.9375 -526.21875 L 537.484375 0 L 478.859375 0 Z M 395.40625 -185.671875 L 269.125 -468.328125 L 142.828125 -185.671875 Z M 395.40625 -185.671875 "/></g></g></g><g fill="#ffffff" fill-opacity="1"><g transform="translate(2695.112142, 1211.082322)"><g><path d="M 282.65625 -526.21875 C 349.8125 -526.21875 402.429688 -510.175781 440.515625 -478.09375 C 478.597656 -446.019531 497.640625 -401.921875 497.640625 -345.796875 C 497.640625 -289.671875 478.597656 -245.695312 440.515625 -213.875 C 402.429688 -182.050781 349.8125 -166.140625 282.65625 -166.140625 L 141.328125 -166.140625 L 141.328125 0 L 85.703125 0 L 85.703125 -526.21875 Z M 281.15625 -215 C 333.269531 -215 373.109375 -226.398438 400.671875 -249.203125 C 428.234375 -272.003906 442.015625 -304.203125 442.015625 -345.796875 C 442.015625 -388.390625 428.234375 -421.085938 400.671875 -443.890625 C 373.109375 -466.703125 333.269531 -478.109375 281.15625 -478.109375 L 141.328125 -478.109375 L 141.328125 -215 Z M 281.15625 -215 "/></g></g></g><g fill="#ffffff" fill-opacity="1"><g transform="translate(3327.973407, 1211.082322)"><g><path d="M 315.734375 4.515625 C 263.609375 4.515625 216.367188 -7.132812 174.015625 -30.4375 C 131.671875 -53.75 98.597656 -85.703125 74.796875 -126.296875 C 50.992188 -166.890625 39.09375 -212.492188 39.09375 -263.109375 C 39.09375 -313.722656 50.992188 -359.328125 74.796875 -399.921875 C 98.597656 -440.515625 131.671875 -472.460938 174.015625 -495.765625 C 216.367188 -519.066406 263.609375 -530.71875 315.734375 -530.71875 C 367.847656 -530.71875 414.828125 -519.191406 456.671875 -496.140625 C 498.523438 -473.085938 531.476562 -441.140625 555.53125 -400.296875 C 579.582031 -359.453125 591.609375 -313.722656 591.609375 -263.109375 C 591.609375 -212.492188 579.582031 -166.765625 555.53125 -125.921875 C 531.476562 -85.078125 498.523438 -53.125 456.671875 -30.0625 C 414.828125 -7.007812 367.847656 4.515625 315.734375 4.515625 Z M 315.734375 -45.109375 C 357.328125 -45.109375 394.910156 -54.503906 428.484375 -73.296875 C 462.066406 -92.085938 488.378906 -118.144531 507.421875 -151.46875 C 526.460938 -184.800781 535.984375 -222.015625 535.984375 -263.109375 C 535.984375 -304.203125 526.460938 -341.410156 507.421875 -374.734375 C 488.378906 -408.066406 462.066406 -434.128906 428.484375 -452.921875 C 394.910156 -471.710938 357.328125 -481.109375 315.734375 -481.109375 C 274.128906 -481.109375 236.410156 -471.710938 202.578125 -452.921875 C 168.753906 -434.128906 142.195312 -408.066406 122.90625 -374.734375 C 103.613281 -341.410156 93.96875 -304.203125 93.96875 -263.109375 C 93.96875 -222.015625 103.613281 -184.800781 122.90625 -151.46875 C 142.195312 -118.144531 168.753906 -92.085938 202.578125 -73.296875 C 236.410156 -54.503906 274.128906 -45.109375 315.734375 -45.109375 Z M 315.734375 -45.109375 "/></g></g></g><g fill="#ffffff" fill-opacity="1"><g transform="translate(4051.777053, 1211.082322)"><g><path d="M 85.703125 -526.21875 L 141.328125 -526.21875 L 141.328125 -48.109375 L 436 -48.109375 L 436 0 L 85.703125 0 Z M 85.703125 -526.21875 "/></g></g></g><g fill="#ffffff" fill-opacity="1"><g transform="translate(4587.682992, 1211.082322)"><g><path d="M 315.734375 4.515625 C 263.609375 4.515625 216.367188 -7.132812 174.015625 -30.4375 C 131.671875 -53.75 98.597656 -85.703125 74.796875 -126.296875 C 50.992188 -166.890625 39.09375 -212.492188 39.09375 -263.109375 C 39.09375 -313.722656 50.992188 -359.328125 74.796875 -399.921875 C 98.597656 -440.515625 131.671875 -472.460938 174.015625 -495.765625 C 216.367188 -519.066406 263.609375 -530.71875 315.734375 -530.71875 C 367.847656 -530.71875 414.828125 -519.191406 456.671875 -496.140625 C 498.523438 -473.085938 531.476562 -441.140625 555.53125 -400.296875 C 579.582031 -359.453125 591.609375 -313.722656 591.609375 -263.109375 C 591.609375 -212.492188 579.582031 -166.765625 555.53125 -125.921875 C 531.476562 -85.078125 498.523438 -53.125 456.671875 -30.0625 C 414.828125 -7.007812 367.847656 4.515625 315.734375 4.515625 Z M 315.734375 -45.109375 C 357.328125 -45.109375 394.910156 -54.503906 428.484375 -73.296875 C 462.066406 -92.085938 488.378906 -118.144531 507.421875 -151.46875 C 526.460938 -184.800781 535.984375 -222.015625 535.984375 -263.109375 C 535.984375 -304.203125 526.460938 -341.410156 507.421875 -374.734375 C 488.378906 -408.066406 462.066406 -434.128906 428.484375 -452.921875 C 394.910156 -471.710938 357.328125 -481.109375 315.734375 -481.109375 C 274.128906 -481.109375 236.410156 -471.710938 202.578125 -452.921875 C 168.753906 -434.128906 142.195312 -408.066406 122.90625 -374.734375 C 103.613281 -341.410156 93.96875 -304.203125 93.96875 -263.109375 C 93.96875 -222.015625 103.613281 -184.800781 122.90625 -151.46875 C 142.195312 -118.144531 168.753906 -92.085938 202.578125 -73.296875 C 236.410156 -54.503906 274.128906 -45.109375 315.734375 -45.109375 Z M 315.734375 -45.109375 "/></g></g></g><g fill="#ffffff" fill-opacity="1"><g transform="translate(2398.089144, 1775.328554)"><g><path d="M 23.375 -212.5625 L 46.765625 -212.5625 L 174.609375 -40.078125 L 174.609375 -212.5625 L 196.765625 -212.5625 L 196.765625 0 L 176.125 0 L 45.546875 -177.03125 L 45.546875 0 L 23.375 0 Z M 23.375 -212.5625 "/></g></g></g><g fill="#ffffff" fill-opacity="1"><g transform="translate(2696.575728, 1775.328554)"><g><path d="M 23.375 0 L 23.375 -212.5625 L 175.515625 -212.5625 L 175.515625 -191.90625 L 46.765625 -191.90625 L 46.765625 -117.515625 L 130.875 -117.515625 L 130.875 -97.171875 L 46.765625 -97.171875 L 46.765625 -20.65625 L 176.734375 -20.65625 L 176.734375 0 Z M 23.375 0 "/></g></g></g><g fill="#ffffff" fill-opacity="1"><g transform="translate(2961.964656, 1775.328554)"><g><path d="M 23.375 0 L 23.375 -212.5625 L 46.765625 -212.5625 L 46.765625 -111.75 L 156.6875 -212.5625 L 187.359375 -212.5625 L 71.96875 -108.40625 L 189.78125 0 L 156.984375 0 L 46.765625 -102.03125 L 46.765625 0 Z M 23.375 0 "/></g></g></g><g fill="#ffffff" fill-opacity="1"><g transform="translate(3227.657211, 1775.328554)"><g><path d="M 23.375 0 L 23.375 -212.5625 L 114.484375 -212.5625 C 135.128906 -212.5625 151.828125 -206.941406 164.578125 -195.703125 C 177.335938 -184.472656 183.71875 -169.75 183.71875 -151.53125 C 183.71875 -137.5625 179.613281 -125.515625 171.40625 -115.390625 C 163.207031 -105.265625 152.226562 -98.28125 138.46875 -94.4375 L 186.140625 0 L 160.328125 0 L 114.78125 -91.40625 L 46.765625 -91.40625 L 46.765625 0 Z M 112.953125 -191.609375 L 46.765625 -191.609375 L 46.765625 -111.140625 L 112.953125 -111.140625 C 127.128906 -111.140625 138.566406 -114.832031 147.265625 -122.21875 C 155.972656 -129.613281 160.328125 -139.382812 160.328125 -151.53125 C 160.328125 -163.675781 155.972656 -173.390625 147.265625 -180.671875 C 138.566406 -187.960938 127.128906 -191.609375 112.953125 -191.609375 Z M 112.953125 -191.609375 "/></g></g></g><g fill="#ffffff" fill-opacity="1"><g transform="translate(3501.851928, 1775.328554)"><g><path d="M 23.375 0 L 23.375 -212.5625 L 175.515625 -212.5625 L 175.515625 -191.90625 L 46.765625 -191.90625 L 46.765625 -117.515625 L 130.875 -117.515625 L 130.875 -97.171875 L 46.765625 -97.171875 L 46.765625 -20.65625 L 176.734375 -20.65625 L 176.734375 0 Z M 23.375 0 "/></g></g></g><g fill="#ffffff" fill-opacity="1"><g transform="translate(3767.240856, 1775.328554)"><g><path d="M 5.15625 -191.609375 L 5.15625 -212.5625 L 182.1875 -212.5625 L 182.1875 -191.609375 L 105.375 -191.609375 L 105.375 0 L 81.984375 0 L 81.984375 -191.609375 Z M 5.15625 -191.609375 "/></g></g></g><g fill="#ffffff" fill-opacity="1"><g transform="translate(4032.933504, 1775.328554)"><g><path d="M 23.375 -212.5625 L 46.765625 -212.5625 L 174.609375 -40.078125 L 174.609375 -212.5625 L 196.765625 -212.5625 L 196.765625 0 L 176.125 0 L 45.546875 -177.03125 L 45.546875 0 L 23.375 0 Z M 23.375 -212.5625 "/></g></g></g><g fill="#ffffff" fill-opacity="1"><g transform="translate(4331.420088, 1775.328554)"><g><path d="M 23.375 0 L 23.375 -212.5625 L 46.765625 -212.5625 L 46.765625 0 Z M 23.375 0 "/></g></g></g><g fill="#ffffff" fill-opacity="1"><g transform="translate(4479.904479, 1775.328554)"><g><path d="M 23.375 -212.5625 L 46.765625 -212.5625 L 174.609375 -40.078125 L 174.609375 -212.5625 L 196.765625 -212.5625 L 196.765625 0 L 176.125 0 L 45.546875 -177.03125 L 45.546875 0 L 23.375 0 Z M 23.375 -212.5625 "/></g></g></g><g fill="#ffffff" fill-opacity="1"><g transform="translate(4778.391063, 1775.328554)"><g><path d="M 23.375 0 L 23.375 -212.5625 L 175.515625 -212.5625 L 175.515625 -191.90625 L 46.765625 -191.90625 L 46.765625 -117.515625 L 130.875 -117.515625 L 130.875 -97.171875 L 46.765625 -97.171875 L 46.765625 -20.65625 L 176.734375 -20.65625 L 176.734375 0 Z M 23.375 0 "/></g></g></g></svg>